{"title":"J.H. -  About life","uid":14369680,"size":23818108,"categoryP":"video","categoryS":"other","magnet":"?xt=urn:btih:ea64c05239079c3b5dd9e048a21d41200eef881b&amp;dn=J.H.+-++About+life&amp;tr=udp%3A%2F%2Ftracker.leechers-paradise.org%3A6969&amp;tr=udp%3A%2F%2Fzer0day.ch%3A1337&amp;tr=udp%3A%2F%2Fopen.demonii.com%3A1337&amp;tr=udp%3A%2F%2Ftracker.coppersurfer.tk%3A6969&amp;tr=udp%3A%2F%2Fexodus.desync.com%3A6969","seeders":0,"leechers":0,"uploader":"facebooknahravac","files":1,"time":1461150858,"description":"General\r\nFormat                         : MPEG-4\r\nFormat profile                 : Base Media\r\nCodec ID                       : isom (isom/iso2/avc1/mp41)\r\nFile size                      : 22.7 MiB\r\nDuration                       : 10mn 28s\r\nOverall bit rate mode          : Variable\r\nOverall bit rate               : 303 Kbps\r\nMovie name                     : 10154162881789743\r\nWriting application            : Lavf56.4.101\r\n\r\nVideo\r\nID                             : 1\r\nFormat                         : AVC\r\nFormat/Info                    : Advanced Video Codec\r\nFormat profile                 :   \r\nFormat settings, CABAC         : Yes\r\nFormat settings, ReFrames      : 5 frames\r\nCodec ID                       : avc1\r\nCodec ID/Info                  : Advanced Video Coding\r\nDuration                       : 10mn 28s\r\nBit rate                       : 249 Kbps\r\nWidth                          : 400 pixels\r\nHeight                         : 400 pixels\r\nDisplay aspect ratio           : 1.000\r\nFrame rate mode                : Constant\r\nFrame rate                     : 30.000 fps\r\nColor space                    : YUV\r\nChroma subsampling             : 4:2:0\r\nBit depth                      : 8 bits\r\nScan type                      : Progressive\r\nBits/(Pixel*Frame)             : 0.052\r\nStream size                    : 18.6 MiB (82%)\r\nWriting library                : x264 core 142\r\n\r\n\r\nAudio\r\nID                             : 2\r\nFormat                         : AAC\r\nFormat/Info                    : Advanced Audio Codec\r\nFormat profile                 : HE-AAC / LC\r\nCodec ID                       : 40\r\nDuration                       : 10mn 28s\r\nDuration_LastFrame             : -1ms\r\nBit rate mode                  : Variable\r\nBit rate                       : 48.0 Kbps\r\nMaximum bit rate               : 450 Kbps\r\nChannel(s)                     : 2 channels\r\nChannel(s)_Original            : 1 channel\r\nChannel positions              : Front: C\r\nSampling rate                  : 44.1 KHz / 22.05 KHz\r\nFrame rate                     : 21.533 fps (1024 spf)\r\nCompression mode               : Lossy\r\nStream size                    : 3.60 MiB (16%)\r\nDefault                        : Yes\r\nAlternate group                : 1","torrent":{"xt":"urn:btih:ea64c05239079c3b5dd9e048a21d41200eef881b","amp;dn":"J.H.+-++About+life","amp;tr":["udp%3A%2F%2Ftracker.leechers-paradise.org%3A6969","udp%3A%2F%2Fzer0day.ch%3A1337","udp%3A%2F%2Fopen.demonii.com%3A1337","udp%3A%2F%2Ftracker.coppersurfer.tk%3A6969","udp%3A%2F%2Fexodus.desync.com%3A6969"],"infoHash":"ea64c05239079c3b5dd9e048a21d41200eef881b","infoHashBuffer":{"type":"Buffer","data":[234,100,192,82,57,7,156,59,93,217,224,72,162,29,65,32,14,239,136,27]},"announce":[],"urlList":[]}}